<?xml version="1.0" encoding="UTF-8" standalone="no"?>
<svg width="847px" height="798px" viewBox="0 0 847 798" version="1.1" xmlns="http://www.w3.org/2000/svg" xmlns:xlink="http://www.w3.org/1999/xlink" xmlns:sketch="http://www.bohemiancoding.com/sketch/ns">
    <!-- Generator: Sketch 3.0.4 (8053) - http://www.bohemiancoding.com/sketch -->
    <title>Group</title>
    <desc>Created with Sketch.</desc>
    <defs></defs>
    <g id="Page-1" stroke="none" stroke-width="1" fill="none" fill-rule="evenodd" sketch:type="MSPage">
        <g id="Group" sketch:type="MSLayerGroup" transform="translate(4.000000, 4.000000)">
            <path d="M580.257813,390.492188 C580.257813,390.492188 504.933594,361.78125 484.125,334.851562 C463.316406,307.921875 456.349621,277.05078 463.792969,237.683594 C471.236317,198.316408 507.896941,106.023437 514.960938,91.5039062 C522.024934,76.984375 536.664051,31.3007798 536.664051,19.5312497 C539.619129,11.8183583 534.761717,-10.421875 552.449219,5.875 C570.13672,22.171875 587.285901,39.7446673 596.84375,57.2773437 C596.843751,57.2773451 646.58203,70.4804674 679.550781,83.2539062 C712.519533,96.0273451 746.660156,110.148437 746.660156,110.148437 C746.660156,110.148437 793.605467,86.2578112 816.160156,80.0429688 C838.714845,73.8281263 838.843749,74.1328112 838.84375,88.2539062 C838.843751,102.375001 827.59375,144.160156 827.59375,144.160156 C827.59375,144.160156 827.859374,172.660155 817.042969,208.628906 C806.226564,244.597658 767.089496,343.395938 755.269531,362.359375 C750.964845,369.265626 736.871572,401.871094 690.087912,409.906251 C690.087913,409.906253 694.570311,483.499999 669.726562,547.53125 C644.882814,611.562501 565.347657,715.117186 499.753906,754.785156 C434.160156,794.453126 354.335924,803.798828 266.765613,764.005861 C243.085926,774.736331 175.978519,785.332033 108.019535,752.017579 C40.0605502,718.703126 4.80859375,663.882811 0.63671875,588.558594 C-3.53515625,513.234376 31.6328124,495.556642 51.0039072,497.642579 C70.375002,499.728517 85.8828104,503.160156 90.7070277,532.570314 C95.531245,561.980471 94.6054702,584.214842 94.6054688,611.5 C94.6054673,638.785158 101.082025,674.746092 123.363281,698.121094 C145.644537,721.496095 180.191403,729.75 207.820316,729.750001 C235.449228,729.750003 244.830081,729.750001 244.830081,729.750001" id="Path-1" stroke="#8D1038" fill="#E21B5A" stroke-width="7" stroke-linecap="round" stroke-linejoin="round" sketch:type="MSShapeGroup"></path>
            <path d="M469.582031,652.703125 C469.582031,652.703125 442.75812,572.980469 375.863283,559.777344 C308.968447,546.574219 268.851562,610.390625 268.851562,610.390625 C268.851562,610.390625 246.921878,552.996093 224.769534,526.976562 C202.617191,500.957032 195.705078,498.828125 178.851562,498.828125 C161.998047,498.828125 141.140625,513.960938 151.480469,538.855469 C161.820313,563.75 184.804688,566.527344 184.804688,566.527344 C184.804688,566.527344 203.042967,607.730469 208.519531,635.242188 C213.996096,662.753906 220.652342,674.785156 224.769531,691.902344 C228.886721,709.019531 250.144531,738.261719 250.144531,738.261719" id="Path-2" stroke="#8D1038" stroke-width="7" stroke-linecap="round" stroke-linejoin="round" sketch:type="MSShapeGroup"></path>
            <path d="M540.296875,373.757812 C540.296875,373.757812 538.097656,407.429688 484.886719,425.195312 C431.675781,442.960938 394.587891,430.511719 332.037109,439.416016 C269.486328,448.320312 221.773438,520.726562 221.773438,520.726562" id="Path-3" stroke="#8D1038" stroke-width="7" stroke-linecap="round" stroke-linejoin="round" sketch:type="MSShapeGroup"></path>
            <path d="M250.947266,483.953123 C250.947266,483.953123 243.9043,422.968751 228.156249,408.564453 C212.408198,394.160156 188.066407,399.724609 180.271485,408.564453 C172.476563,417.404296 166.521484,439.6875 183.632812,452.410156 C196.884765,458.648437 199.496094,484.732418 199.496094,500.437498" id="Path-4" stroke="#8D1038" stroke-width="7" stroke-linecap="round" stroke-linejoin="round" sketch:type="MSShapeGroup"></path>
            <path d="M505.113281,411.103516 C505.113281,411.103516 457.441406,346.271484 450.923828,340.601562 C444.40625,334.931641 442.083984,335.517578 431.896484,335.517578 C421.708984,335.517578 364.306641,339.251953 348.253906,344.574219 C332.201172,349.896484 330.855469,354.132813 327.248047,362.189453 C323.640625,370.246093 325.296875,387.980469 345.126954,397.146483 C364.957032,406.312498 392.388672,400.002735 411.373049,386.005858 C427.361333,390.374998 440.453125,430.3125 440.453125,430.3125" id="Path-6" stroke="#8D1038" stroke-width="7" stroke-linecap="round" stroke-linejoin="round" sketch:type="MSShapeGroup"></path>
            <path d="M626.748047,443.261719 C626.748047,443.261719 586.544921,418.042969 549.251952,418.042969 C523.078124,418.042969 509.808592,429.166016 493.888671,440.609375 C477.968749,452.052734 474.882813,458.720703 464.720703,474.990234 C454.558594,491.259766 463.130859,505.005859 472.949218,509.787109 C482.767578,514.568359 489.28711,517.173828 503.992187,514.873047 C518.697265,512.572266 526.695274,499.638672 533.984374,479.851562 C541.273474,473.990234 583.27343,477.666016 597.347656,489.332031" id="Path-5" stroke="#8D1038" stroke-width="7" stroke-linecap="round" stroke-linejoin="round" sketch:type="MSShapeGroup"></path>
            <path d="M542.621094,304.464844 C542.621094,304.464844 542.621094,356.175781 576.812501,316.962891 C586.730469,371.402344 621.216794,328.084156 621.216794,328.084156" id="Path-7" stroke="#8D1038" stroke-width="7" stroke-linecap="round" stroke-linejoin="round" sketch:type="MSShapeGroup"></path>
            <path d="M571.554201,304.63179 C573.784313,301.158749 581.66014,296.054177 581.66014,296.054177 C581.66014,296.054177 591.097161,301.276978 593.251356,304.63179 C595.690362,308.430152 599.540654,317.513699 599.540654,317.513699 C599.540654,317.513699 586.323988,319.889991 581.66014,319.889991 C577.137587,319.889991 564.765325,317.513699 564.765325,317.513699 C564.765325,317.513699 569.191112,308.311923 571.554201,304.63179 Z" id="Triangle-1" stroke="#8D1038" stroke-width="5" stroke-linecap="round" stroke-linejoin="round" fill="#8D1038" sketch:type="MSShapeGroup" transform="translate(582.090753, 308.183472) scale(1, -1) rotate(-24.000000) translate(-582.090753, -308.183472) "></path>
            <path d="M557.396484,333.224609 C557.396484,333.224609 557.396484,363.910156 585.564454,341.568636" id="Path-8" stroke="#8D1038" stroke-width="7" stroke-linecap="round" stroke-linejoin="round" sketch:type="MSShapeGroup"></path>
            <path d="M685.641155,306.800382 C685.632945,306.838388 685.62478,306.876488 685.616662,306.914682 C682.907935,319.658239 680.044249,325.544222 672.523874,323.945717 C665.003499,322.347212 662.464168,315.312782 665.172894,302.569225 C667.881621,289.825668 676.359209,280.91826 686.264785,286.421317 C692.584275,289.932119 691.679122,292.117573 689.492137,296.548828 L689.129883,296.548828 L674.274414,301.488281 C674.274414,301.488281 681.262571,304.585251 685.641155,306.800382 Z" id="Oval-1" fill="#8D1038" sketch:type="MSShapeGroup"></path>
            <path d="M532.042873,256.007844 C531.109677,258.466761 530.205605,261.188643 529.615716,264.223356 C526.995434,277.703537 526.20903,277.118959 518.661902,275.651946 C511.114774,274.184933 508.725792,267.236792 511.346074,253.756611 C513.966356,240.27643 521.12389,232.424204 531.089722,237.929886 C535.69362,240.473336 536.28844,243.401344 535.337441,247.144816 L522.274414,251.488281 C522.274414,251.488281 527.74879,253.914383 532.042873,256.007844 Z" id="Oval-2" fill="#8D1038" sketch:type="MSShapeGroup"></path>
        </g>
    </g>
</svg>