<?xml version="1.0" encoding="UTF-8" standalone="no"?>
<svg width="598px" height="769px" viewBox="0 0 598 769" version="1.1" xmlns="http://www.w3.org/2000/svg" xmlns:xlink="http://www.w3.org/1999/xlink" xmlns:sketch="http://www.bohemiancoding.com/sketch/ns">
    <!-- Generator: Sketch 3.0.4 (8053) - http://www.bohemiancoding.com/sketch -->
    <title>Group</title>
    <desc>Created with Sketch.</desc>
    <defs></defs>
    <g id="Page-1" stroke="none" stroke-width="1" fill="none" fill-rule="evenodd" sketch:type="MSPage">
        <g id="Portrait" sketch:type="MSArtboardGroup" transform="translate(-152.000000, -19.000000)" stroke="#8D1038" stroke-width="7" stroke-linecap="round" stroke-linejoin="round">
            <g id="Group" sketch:type="MSLayerGroup" transform="translate(431.249168, 416.099343) scale(-1, 1) rotate(21.000000) translate(-431.249168, -416.099343) translate(239.249168, -38.900657)">
                <path d="M140.529842,395.018312 C140.529842,395.018312 141.56144,377.699154 172.944845,377.699154 C204.328251,377.699154 220.592828,378.863116 256.089942,390.804186 C291.587055,402.745256 288.058906,402.420771 294.924951,410.40521 C301.790996,418.38965 299.558685,433.242717 299.558685,433.242717" id="Path-2" sketch:type="MSShapeGroup"></path>
                <path d="M183.670926,396.801936 C183.670926,396.801936 152.693395,396.014797 139.472877,396.014797 C126.252358,396.014797 47.5845654,410.451266 26.1450868,451.520677 C4.70560829,492.590088 8.74744254,489.470839 3.90654273,516.057724 C-0.934357082,542.644609 -3.69726321,569.300579 9.27381109,597.080734 C22.2448854,624.860889 38.2980698,644.080904 49.3095314,653.135099 C60.320993,662.189294 62.2806108,670.362145 84.5698887,683.915176 C106.859167,697.468207 124.113061,710.146174 111.366066,758.484062 C98.6190711,806.82195 81.9359319,795.130001 59.3422434,811.982318 C36.7485549,828.834635 6.31642347,828.639944 30.2968455,910.255402 C30.296845,872.964678 34.2668056,858.343985 49.3095314,841.807779 C64.3522572,825.271574 66.7790539,820.971616 92.3026449,820.971616 C117.826236,820.971616 122.024499,798.402072 127.482666,775.549912 C132.940832,752.697751 128.981442,733.48611 144.641435,724.266531 C160.301429,715.046953 179.060445,715.235364 224.053331,694.468285 C269.046218,673.701206 280.634784,679.625686 303.110087,653.135099 C325.585391,626.644513 346.221577,610.300905 346.221577,560.568776 C346.221576,510.836646 352.724026,480.381055 321.53933,451.520677 C290.354633,422.660299 258.159479,414.114813 239.013614,407.105924" id="Path-1" sketch:type="MSShapeGroup"></path>
                <path d="M180.198796,376.330027 C180.198796,376.330027 140.314221,249.786928 107.966863,190.655183 C96.6002614,176.744171 117.687771,154.80057 138.284848,159.177985 C167.488792,162.972373 213.086263,301.410487 213.086263,377.913726" id="Path-3" sketch:type="MSShapeGroup"></path>
                <path d="M199.853061,285.86972 C199.853061,285.86972 208.503263,173.07225 202.017725,105.185673 C202.017725,87.5602542 222.480598,90.2907372 238.07503,90.2907372 C253.669462,90.2907373 257.945225,101.562234 260.782867,110.381629 C265.907033,138.852627 270.187741,245.493276 218.328809,378.61191" id="Path-4" sketch:type="MSShapeGroup"></path>
                <path d="M258.962773,103.745376 C258.962773,103.745376 251.534423,69.917228 241.685622,47.173927 C231.836822,24.4306261 247.490474,17.0700364 257.480908,9.45613866 C267.471341,1.84224087 304.401695,-5.97681556 313.216787,5.54556371 C322.03188,17.067943 331.81092,67.86564 331.810916,98.9450824 C331.810912,130.024525 318.154928,231.659703 284.704099,300.70814 C251.25327,369.756577 245.097506,383.770175 245.097506,383.770175" id="Path-5" sketch:type="MSShapeGroup"></path>
                <path d="M306.361312,250.362628 C306.361312,250.362628 329.59129,218.117132 343.414278,211.459944 C357.237267,204.802755 366.077722,207.524247 373.599085,216.838031 C381.120449,226.151815 386.739275,235.346271 382.437427,248.68577 C378.135579,262.025269 326.631788,330.047927 299.36209,360.359062 C272.092392,390.670197 268.143571,394.371434 268.143571,394.371434" id="Path-6" sketch:type="MSShapeGroup"></path>
            </g>
        </g>
    </g>
</svg>